<svg xmlns="http://www.w3.org/2000/svg" width="80" height="80" viewBox="0 0 80 80">
  <g id="Group_303" data-name="Group 303" transform="translate(-175 -327)">
    <circle id="Ellipse_64" data-name="Ellipse 64" cx="40" cy="40" r="40" transform="translate(175 327)" fill="#fff"/>
    <path id="Icon_awesome-exclamation" data-name="Icon awesome-exclamation" d="M10.5,25.313a4.688,4.688,0,1,1-4.687-4.687A4.693,4.693,0,0,1,10.5,25.313ZM1.668,1.477l.8,15.937a1.406,1.406,0,0,0,1.4,1.336H7.756a1.406,1.406,0,0,0,1.4-1.336l.8-15.937A1.406,1.406,0,0,0,8.553,0H3.072A1.406,1.406,0,0,0,1.668,1.477Z" transform="translate(208.875 352)" fill="#cf040d"/>
  </g>
</svg>
