<svg id="Group_105" data-name="Group 105" xmlns="http://www.w3.org/2000/svg" width="38.595" height="40" viewBox="0 0 38.595 40">
  <ellipse id="Ellipse_7" data-name="Ellipse 7" cx="18.5" cy="20" rx="18.5" ry="20" transform="translate(1.225)" fill="#fff"/>
  <path id="Icon_awesome-facebook" data-name="Icon awesome-facebook" d="M39.157,20.357A19.547,19.547,0,0,0,19.86.563,19.547,19.547,0,0,0,.563,20.357,19.654,19.654,0,0,0,16.845,39.911V26.078h-4.9V20.357h4.9V16c0-4.96,2.879-7.7,7.289-7.7a28.976,28.976,0,0,1,4.32.386V13.55H26.02a2.826,2.826,0,0,0-3.144,3.091v3.715h5.352l-.856,5.722h-4.5V39.911A19.654,19.654,0,0,0,39.157,20.357Z" transform="translate(-0.563 -0.563)" fill="#07f"/>
</svg>
