<svg xmlns="http://www.w3.org/2000/svg" xmlns:xlink="http://www.w3.org/1999/xlink" width="63" height="63" viewBox="0 0 63 63">
  <defs>
    <filter id="Ellipse_52" x="0" y="0" width="63" height="63" filterUnits="userSpaceOnUse">
      <feOffset dy="3" input="SourceAlpha"/>
      <feGaussianBlur stdDeviation="3" result="blur"/>
      <feFlood flood-opacity="0.161"/>
      <feComposite operator="in" in2="blur"/>
      <feComposite in="SourceGraphic"/>
    </filter>
  </defs>
  <g id="Group_74" data-name="Group 74" transform="translate(-726 -3498)">
    <g transform="matrix(1, 0, 0, 1, 726, 3498)" filter="url(#Ellipse_52)">
      <circle id="Ellipse_52-2" data-name="Ellipse 52" cx="22.5" cy="22.5" r="22.5" transform="translate(9 6)" fill="#e6e6e6"/>
    </g>
    <path id="Icon_ionic-ios-send" data-name="Icon ionic-ios-send" d="M29.683,4.561,4.825,15.4a.57.57,0,0,0,.02,1.036l6.724,3.8a1.084,1.084,0,0,0,1.239-.122L26.067,8.678c.088-.074.3-.217.379-.135s-.047.291-.122.379L14.854,21.842a1.081,1.081,0,0,0-.108,1.293l4.395,7.049a.572.572,0,0,0,1.029-.014L30.448,5.313A.57.57,0,0,0,29.683,4.561Z" transform="translate(739.497 3510.497)" fill="#cf040d"/>
  </g>
</svg>
